# xmcd CD database file
#
# Track frame offsets:
#       150
#       15962
#       27062
#       46262
#       64972
#       78547
#       92647
#       109897
#       123622
#       138472
#       155872
#
# Disc length: 2321 seconds
#
# Revision: 0
# Processed by: cddbd v1.5.1PL0 Copyright (c) Steve Scherf et al.
# Submitted via: jack 3.1.1
#
DISCID=8f090f0b
DTITLE=Various Artist - The Frontier of Country Volume 14
DYEAR=1900
DGENRE=
TTITLE0=Alison Krauss - Forget About It
TTITLE1=Rosie Flores - Little Bit More
TTITLE2=The Rankins - Maybe You're Right
TTITLE3=Kris Kristofferson - Help Me Make It Through the Night
TTITLE4=Heather Myles - Broken Heart for Sale
TTITLE5=Lynn Morris - If Teardrops were Pennies
TTITLE6=Tanya Savory - When the River Rose
TTITLE7=Red Steagall and the Boys in the Bunkhouse - Belle of the Ball
TTITLE8=Laurie Lewis - Tall Pines
TTITLE9=Rob Ickes - California Blues
TTITLE10=Longview - High Lonesome
EXTD=
EXTT0=
EXTT1=
EXTT2=
EXTT3=
EXTT4=
EXTT5=
EXTT6=
EXTT7=
EXTT8=
EXTT9=
EXTT10=
PLAYORDER=
